<svg width="44" height="56" viewBox="0 0 44 56" fill="none" xmlns="http://www.w3.org/2000/svg">
<g opacity="0.75">
<path d="M42.6916 32.9349C42.6633 32.7844 42.635 32.6339 42.6255 32.4835C42.6114 32.2342 42.569 32.0085 42.5218 31.7828C42.4935 31.6371 42.4652 31.4866 42.4464 31.3362C42.4134 31.0305 42.3568 30.739 42.3049 30.4381L42.2625 30.1983C42.2436 30.0807 42.2578 29.9302 42.2719 29.7704C42.2955 29.54 42.3191 29.2814 42.2578 29.0133L42.1917 28.7265C42.1257 28.4444 42.0644 28.1576 41.9796 27.8802C41.8664 27.4993 41.7344 27.1278 41.6071 26.7752C41.5222 26.5401 41.4185 26.3238 41.3147 26.1122C41.2487 25.9805 41.1874 25.8489 41.1261 25.7125C41.0648 25.5714 41.0224 25.4257 40.9752 25.2752C40.9092 25.0589 40.8385 24.8332 40.7301 24.6122L40.5886 24.316C40.466 24.0621 40.3434 23.8082 40.2067 23.5684C40.0794 23.3427 39.9049 23.164 39.754 22.9994C39.6409 22.8819 39.5324 22.769 39.4617 22.6562C39.3815 22.5292 39.3061 22.3929 39.2354 22.2612C39.1269 22.059 39.0137 21.8521 38.8676 21.6546C38.7073 21.4337 38.4998 21.2832 38.3159 21.1468C38.1839 21.0528 38.0613 20.9634 37.9859 20.8694C37.8963 20.7613 37.8114 20.6484 37.7265 20.5356C37.5851 20.3475 37.4389 20.1547 37.2692 19.9666C37.0947 19.7785 36.9061 19.6046 36.7175 19.4306C36.6232 19.3412 36.5289 19.2566 36.4346 19.1673L36.213 18.9463C36.0149 18.7488 35.8169 18.556 35.6047 18.3679C35.4916 18.2692 35.3878 18.1657 35.2794 18.0623C35.1143 17.9024 34.9493 17.7331 34.7513 17.5827C34.6428 17.498 34.5391 17.4134 34.4354 17.3288C34.2468 17.1736 34.0534 17.0137 33.8413 16.868C33.6291 16.7222 33.4075 16.5999 33.1953 16.4824C33.0774 16.4166 32.9548 16.3507 32.8369 16.2802C32.5823 16.1297 32.323 15.9934 32.0589 15.857L31.8185 15.7301C31.7006 15.6689 31.5827 15.5749 31.4554 15.4715C31.2809 15.3351 31.0876 15.1752 30.8472 15.0671L30.5642 14.9354C30.3049 14.8132 30.0456 14.6956 29.7815 14.5922C29.5316 14.4981 29.277 14.4746 29.0554 14.4558C28.8904 14.4417 28.7395 14.4323 28.6216 14.39C28.4896 14.3477 28.3528 14.2818 28.2067 14.2113C28.1737 14.1972 28.1407 14.1784 28.1077 14.1643C28.1501 14.1032 28.1878 14.042 28.2303 13.995C28.4 13.7975 28.5179 13.5906 28.631 13.3885C28.7018 13.2662 28.7678 13.1392 28.8527 13.0264C28.9139 12.9418 29.0318 12.8571 29.1544 12.7631C29.3477 12.622 29.5646 12.4574 29.7108 12.2129C29.8428 11.9966 29.9277 11.7757 30.0079 11.5641C30.0644 11.4277 30.1163 11.2866 30.1823 11.155C30.2955 10.9293 30.3568 10.6942 30.4134 10.4873C30.4511 10.3321 30.4935 10.1864 30.5454 10.0641C30.5925 9.95596 30.6821 9.83841 30.7811 9.71616C30.9179 9.53748 31.0782 9.34 31.1725 9.08609C31.2668 8.83218 31.347 8.56886 31.4271 8.30555L31.5214 7.99521C31.5969 7.75541 31.6157 7.5156 31.6299 7.30401C31.644 7.13944 31.6534 6.98897 31.6864 6.85732C31.7242 6.71626 31.7855 6.57049 31.8468 6.42003C31.9269 6.22254 32.0118 6.01565 32.0637 5.78525C32.0967 5.64889 32.1532 5.50313 32.2193 5.34796C32.2994 5.14577 32.3843 4.93888 32.4314 4.70378C32.4833 4.44047 32.4503 4.18656 32.422 3.96556C32.4031 3.80569 32.3796 3.65523 32.3984 3.54708C32.4409 3.28847 32.2664 3.04866 32.0118 3.00634C31.7525 2.96403 31.512 3.138 31.4695 3.39191C31.4413 3.54708 31.4083 3.64582 30.998 3.77748C30.7151 3.86682 30.3709 3.92324 29.9088 3.94205C29.6589 3.95145 29.4185 4.01728 29.2016 4.07371C29.0083 4.12543 28.8055 4.16775 28.6829 4.17245C28.5037 4.17245 28.334 4.15834 28.1784 4.14894C27.8672 4.13013 27.5937 4.11132 27.358 4.14894C27.2401 4.16775 27.1222 4.18656 26.9996 4.20066C26.7261 4.23828 26.4479 4.2806 26.1603 4.35113L25.8916 4.41696C25.5992 4.48749 25.2927 4.56272 24.991 4.66616C24.8637 4.70848 24.7363 4.7508 24.6043 4.78842C24.3544 4.86365 24.0951 4.94359 23.8358 5.05643C23.699 5.11756 23.5528 5.16458 23.4067 5.2116C23.1709 5.29154 22.9257 5.37147 22.69 5.49843C22.4448 5.63479 22.2515 5.82757 22.0817 5.99684C21.9639 6.11439 21.8554 6.22724 21.7422 6.29777C21.6196 6.38241 21.4829 6.44824 21.3462 6.51877C21.1246 6.63162 20.8982 6.74917 20.6861 6.91844C20.4692 7.09242 20.2947 7.28991 20.125 7.48269C20.0306 7.59084 19.9316 7.69898 19.8326 7.79773C19.5497 8.07515 19.2998 8.38078 19.0593 8.67231L19.0263 8.71462C18.7717 9.02026 18.5925 9.33529 18.4039 9.66444C18.3473 9.76318 18.2625 9.86662 18.1776 9.97477C18.0267 10.1582 17.857 10.3697 17.758 10.6331C17.6589 10.9058 17.6637 11.1738 17.6684 11.4136C17.6684 11.5547 17.6684 11.6863 17.6542 11.7851C17.6354 11.8838 17.5741 12.0061 17.5128 12.133C17.4138 12.3446 17.2959 12.5844 17.277 12.8665C17.2534 13.191 17.2393 13.553 17.244 13.9856C17.244 14.0138 17.2487 14.042 17.2534 14.0703C17.2016 14.0891 17.1497 14.1079 17.1026 14.1267C16.9658 14.1831 16.8291 14.2395 16.6876 14.2771C16.5462 14.3195 16.4 14.3477 16.2538 14.3759C16.0369 14.4182 15.8153 14.4605 15.589 14.5405C15.457 14.5875 15.3108 14.6157 15.1552 14.6486C14.9383 14.6956 14.712 14.7426 14.4857 14.8367L14.3442 14.8978C14.0424 15.0248 13.736 15.1517 13.4436 15.2928C13.2267 15.3962 13.0334 15.5279 12.8495 15.6501C12.7269 15.7348 12.5996 15.8194 12.4723 15.8899C12.3591 15.9558 12.213 16.0028 12.0621 16.0592C11.8593 16.1297 11.6283 16.2097 11.4161 16.346C11.1756 16.4965 11.02 16.7175 10.8833 16.915C10.7937 17.0419 10.7088 17.1595 10.6334 17.2159C10.5202 17.2959 10.3882 17.3664 10.2468 17.4416C10.0534 17.5451 9.85069 17.6532 9.65737 17.8037C9.46876 17.9541 9.31316 18.1187 9.16228 18.2786C9.05855 18.3867 8.95953 18.4949 8.84636 18.5936C8.75678 18.6736 8.62475 18.7394 8.48802 18.8146C8.28998 18.9181 8.06837 19.0356 7.87976 19.2237C7.63929 19.4635 7.40825 19.7174 7.18193 19.9713L7.10648 20.056C6.93674 20.2487 6.82358 20.465 6.72456 20.6578C6.65383 20.7989 6.5831 20.9305 6.50295 21.0293C6.35206 21.2174 6.22475 21.4148 6.10688 21.6029C6.03143 21.7252 5.95128 21.8427 5.87112 21.9603C5.80982 22.0449 5.69194 22.1343 5.56935 22.2283C5.38546 22.3694 5.178 22.5245 5.03183 22.7596C4.85737 23.0323 4.69705 23.3239 4.54145 23.6107L4.46601 23.7471C4.3387 23.9728 4.23026 24.2126 4.11709 24.4524C4.06994 24.5558 4.01807 24.664 3.96621 24.7674C3.90491 24.8944 3.83418 25.0213 3.76346 25.1483C3.65501 25.3458 3.53713 25.5526 3.44754 25.7783C3.3391 26.0322 3.32967 26.2956 3.32495 26.526C3.32024 26.6811 3.31552 26.8269 3.28251 26.9256C3.24951 27.0197 3.15992 27.1325 3.06562 27.2548C2.91945 27.4382 2.75442 27.6498 2.67426 27.9225C2.60354 28.167 2.59882 28.4162 2.59411 28.6325C2.59411 28.7923 2.58939 28.9428 2.5611 29.0651C2.50923 29.3002 2.49037 29.5212 2.47623 29.7422C2.4668 29.8926 2.45737 30.0431 2.42908 30.1889C2.4055 30.3158 2.34892 30.4569 2.29234 30.6026C2.21218 30.8048 2.12259 31.0352 2.08959 31.2891C2.0613 31.5383 2.08016 31.7781 2.10373 31.9944C2.11788 32.1543 2.13202 32.3048 2.12259 32.4364C2.11316 32.5869 2.08959 32.7327 2.06601 32.8831C2.03301 33.1041 2 33.3298 2 33.5696C2 33.927 2.00943 34.2984 2.02829 34.7075C2.03772 34.8439 2.03772 34.9849 2.04244 35.1213C2.04244 35.3564 2.05187 35.6009 2.07544 35.8454C2.10373 36.0993 2.19332 36.3344 2.26876 36.5366C2.32534 36.6871 2.37721 36.8234 2.40079 36.9504C2.42436 37.0962 2.43851 37.2466 2.45265 37.3924C2.47151 37.6134 2.49037 37.8438 2.54695 38.0789L2.60825 38.3657C2.66955 38.6431 2.72613 38.9158 2.80629 39.1886C2.8723 39.4237 2.9666 39.6353 3.05619 39.8374C3.11277 39.9738 3.17407 40.1102 3.22122 40.2465C3.25894 40.3547 3.27308 40.5051 3.28251 40.665C3.30138 40.8907 3.32024 41.1446 3.42397 41.3938C3.51827 41.6195 3.63615 41.817 3.74931 42.0098C3.82475 42.1414 3.90491 42.2684 3.96621 42.4048C4.03222 42.5364 4.08409 42.6728 4.14067 42.8138C4.22554 43.0254 4.31513 43.2417 4.43301 43.4533L4.57446 43.7166C4.7112 43.9658 4.84322 44.2198 4.99411 44.4549C5.13084 44.6712 5.31002 44.8404 5.46562 44.9909C5.5835 45.1037 5.69194 45.2072 5.76739 45.3106L5.91356 45.5222C6.0833 45.762 6.25305 46.0018 6.43222 46.2322C6.58782 46.4297 6.78114 46.5802 6.95088 46.7118C7.07819 46.8106 7.19607 46.9046 7.28094 46.9987C7.54499 47.2949 7.82318 47.577 8.06365 47.8168C8.14381 47.8968 8.21454 48.0284 8.29469 48.1648C8.40314 48.3623 8.53045 48.5832 8.7332 48.7666C8.83694 48.8607 8.93595 48.9547 9.03969 49.0535C9.20943 49.218 9.38389 49.3873 9.57721 49.5425C9.83654 49.7494 10.11 49.9468 10.3835 50.1396L10.5014 50.2243C10.6994 50.3653 10.9069 50.4688 11.1049 50.5675C11.2417 50.6333 11.3784 50.7039 11.5057 50.7791C11.6236 50.8543 11.7415 50.9484 11.864 51.0518C12.0385 51.1929 12.2177 51.3433 12.4346 51.4609C12.6515 51.5784 12.8684 51.6537 13.0806 51.7242C13.2361 51.7759 13.3776 51.823 13.5049 51.8841C13.6322 51.9452 13.7595 52.0157 13.8868 52.0863C14.0896 52.1991 14.2971 52.312 14.5234 52.406C14.745 52.5 14.9713 52.5565 15.1882 52.6082C15.3344 52.6458 15.4806 52.6834 15.6267 52.7304C15.7635 52.7775 15.8955 52.8339 16.0275 52.8856C16.2397 52.9703 16.4613 53.0596 16.6971 53.1301C16.8385 53.1724 16.98 53.2289 17.1167 53.29C17.3242 53.3793 17.5363 53.4687 17.7768 53.5251C18.0503 53.5862 18.3096 53.5533 18.536 53.5204C18.6916 53.4969 18.8424 53.4781 18.9462 53.4969C19.0735 53.5204 19.2102 53.5768 19.3611 53.6332C19.5639 53.7132 19.7949 53.8072 20.0495 53.8354C20.29 53.8636 20.521 53.8542 20.7473 53.8448C20.8982 53.8401 21.0491 53.8307 21.1953 53.8401C21.3132 53.8495 21.431 53.8542 21.5442 53.8636C21.8083 53.8825 22.0723 53.9013 22.3316 53.906C22.4684 53.906 22.624 53.9248 22.7843 53.9483C22.9729 53.9718 23.1615 54 23.3642 54C23.402 54 23.4397 54 23.4821 54C23.7273 53.9859 23.9583 53.9436 24.18 53.906C24.3261 53.8777 24.4723 53.8542 24.6185 53.8354L24.9344 53.8025C25.2079 53.7743 25.4861 53.7461 25.7548 53.7038C26.0047 53.6615 26.231 53.5674 26.4291 53.4828C26.5752 53.4216 26.7167 53.3605 26.844 53.3323C27.0845 53.2759 27.3108 53.2007 27.5324 53.1301C27.6644 53.0878 27.7965 53.0408 27.9332 53.0032C28.0747 52.9608 28.2208 52.9326 28.367 52.9044C28.5839 52.8621 28.8102 52.8151 29.0413 52.7352C29.1544 52.6975 29.2629 52.6599 29.376 52.6223C29.6259 52.5424 29.8711 52.4577 30.1163 52.359C30.2436 52.3073 30.3898 52.2696 30.5454 52.232C30.7623 52.1803 30.9886 52.1239 31.2149 52.0157C31.3422 51.9546 31.4695 51.8982 31.5969 51.8465C31.8138 51.7524 32.0401 51.6537 32.257 51.5361C32.4739 51.4186 32.653 51.2681 32.8228 51.1224C32.9454 51.0189 33.0633 50.9202 33.1811 50.8496C33.3933 50.718 33.5914 50.5675 33.78 50.4264C33.8884 50.3465 33.9969 50.2619 34.1053 50.1866C34.4118 49.9703 34.6994 49.7494 35.0106 49.5001C35.1285 49.4061 35.2558 49.3262 35.3831 49.2462C35.5717 49.1287 35.765 49.0064 35.9489 48.8419C36.147 48.6632 36.279 48.4516 36.3969 48.2588C36.477 48.1224 36.5572 47.9955 36.642 47.9109C36.7458 47.8074 36.8637 47.7134 36.9768 47.6146C37.1466 47.4736 37.3257 47.3278 37.486 47.1491C37.5803 47.0457 37.6935 46.9469 37.8161 46.8435C37.9859 46.6977 38.1603 46.5473 38.3159 46.3592C38.4008 46.251 38.4951 46.1476 38.5894 46.0394C38.745 45.8608 38.9053 45.6774 39.0515 45.4752C39.1976 45.2683 39.2919 45.0426 39.3721 44.8451C39.4334 44.6947 39.49 44.5583 39.5607 44.4454C39.7965 44.074 39.9851 43.7637 40.1454 43.4721C40.2114 43.3546 40.2774 43.2417 40.3481 43.1242C40.4707 42.922 40.598 42.7104 40.7065 42.48C40.8102 42.2637 40.8809 42.0427 40.947 41.8311C40.9894 41.6901 41.0365 41.5443 41.0931 41.4079C41.1921 41.1775 41.2629 40.9424 41.3383 40.7167C41.3807 40.5898 41.4185 40.4628 41.4656 40.3359C41.5505 40.0914 41.6212 39.8421 41.6872 39.5929C41.7202 39.4801 41.7485 39.3625 41.7815 39.2497L41.8004 39.1886C41.8994 38.8453 41.9984 38.5115 42.0786 38.1588C42.1635 37.7921 42.2248 37.43 42.2908 37.0491C42.3191 36.8987 42.3568 36.7482 42.3945 36.6024C42.4511 36.3861 42.5124 36.1651 42.5407 35.9206C42.5831 35.5633 42.6114 35.1871 42.6397 34.7686C42.6491 34.6276 42.6774 34.4771 42.7104 34.3172C42.7528 34.0963 42.8 33.8659 42.8 33.6166C42.8 33.3674 42.7576 33.137 42.7198 32.9113L42.6916 32.9349ZM18.2106 12.9559C18.22 12.8477 18.2861 12.702 18.3615 12.5515C18.4417 12.3869 18.5312 12.1988 18.5737 11.9872C18.6161 11.7851 18.6114 11.5876 18.6067 11.4136C18.6067 11.2443 18.602 11.0798 18.6397 10.9763C18.6821 10.8588 18.7906 10.7271 18.9037 10.586C19.0075 10.4591 19.1206 10.318 19.2291 10.1346C19.3941 9.85252 19.5497 9.5798 19.7525 9.33529L19.7855 9.29298C20.0212 9.00615 20.2428 8.73343 20.4927 8.48893C20.6106 8.37608 20.7191 8.25382 20.8275 8.12687C20.9784 7.9576 21.1246 7.79302 21.2802 7.66607C21.4169 7.55792 21.5914 7.46858 21.7752 7.37454C21.9356 7.28991 22.1053 7.20527 22.2656 7.09712C22.4542 6.97017 22.6098 6.815 22.7466 6.67394C22.8833 6.53758 23.0106 6.41062 23.1379 6.34009C23.2982 6.25075 23.4916 6.18963 23.699 6.1191C23.8735 6.06267 24.0479 6.00155 24.213 5.93101C24.4157 5.84168 24.6373 5.77585 24.8731 5.70532C25.0145 5.663 25.156 5.62068 25.2927 5.56896C25.5521 5.47962 25.8255 5.41379 26.1084 5.34326L26.3866 5.27273C26.6224 5.2116 26.8676 5.17869 27.1222 5.14107C27.2495 5.12226 27.3768 5.10346 27.4994 5.08465C27.5466 5.07524 27.6079 5.07524 27.6739 5.07524C27.7965 5.07524 27.9473 5.08465 28.1029 5.09405C28.2727 5.10346 28.4519 5.11756 28.6452 5.12226C28.9234 5.12226 29.178 5.06114 29.4279 4.99531C29.6118 4.94829 29.7815 4.90127 29.9324 4.89657C30.4794 4.87305 30.9084 4.80723 31.2715 4.68497C31.3375 4.66616 31.4035 4.64265 31.4695 4.61444C31.4365 4.7367 31.3847 4.86835 31.3281 5.00471C31.2527 5.18809 31.1772 5.37617 31.1301 5.58777C31.0923 5.74293 31.0263 5.9075 30.9556 6.07678C30.8849 6.25075 30.8141 6.42943 30.7576 6.62692C30.701 6.83851 30.6821 7.0548 30.668 7.24289C30.6538 7.42156 30.6397 7.58613 30.5972 7.72249L30.4982 8.03753C30.4228 8.28204 30.3473 8.52654 30.2625 8.76635C30.22 8.8792 30.121 9.00615 30.0126 9.14251C29.89 9.30238 29.7485 9.48106 29.6542 9.69735C29.5694 9.89013 29.5222 10.0782 29.475 10.2616C29.4279 10.4403 29.3855 10.6048 29.3195 10.7412C29.2393 10.9011 29.1733 11.0656 29.1073 11.2349C29.0365 11.4183 28.9658 11.597 28.8762 11.7427C28.8244 11.8321 28.6971 11.9261 28.5603 12.0249C28.3906 12.1518 28.202 12.2929 28.0558 12.4951C27.9521 12.6408 27.8672 12.7913 27.7776 12.9465C27.6833 13.1157 27.5937 13.2756 27.4806 13.4073C27.3485 13.5624 27.2495 13.727 27.1552 13.8869C27.0562 14.0467 26.9666 14.2019 26.8629 14.3054C26.7497 14.4182 26.5894 14.5122 26.4149 14.6157C26.2546 14.7097 26.0896 14.8085 25.934 14.9354C25.6558 15.1611 25.3587 15.3962 25.0475 15.5984C24.8684 15.716 24.7175 15.857 24.576 15.9934C24.4346 16.125 24.3026 16.252 24.1752 16.3178C24.0857 16.3648 23.9159 16.3696 23.7462 16.379C23.5293 16.3884 23.2794 16.3978 23.0389 16.4918C22.6664 16.6376 22.3458 16.7551 22.011 16.8445C21.6715 16.9385 21.3415 16.9949 20.9454 17.0513C20.5352 17.1125 20.2145 17.1501 19.8703 17.1595L19.5639 17.1689C19.2291 17.183 18.9697 17.1924 18.8472 17.1313C18.6868 17.0513 18.602 16.9197 18.5124 16.0686C18.4935 15.8664 18.4841 15.6642 18.4747 15.4621C18.4699 15.3163 18.4605 15.1705 18.4511 15.0248C18.4369 14.8085 18.3662 14.6157 18.2955 14.4417C18.3002 14.39 18.3049 14.3336 18.2908 14.2818C18.2719 14.1972 18.2248 14.1314 18.1729 14.075C18.1682 14.0514 18.1587 14.0232 18.1587 13.9997C18.1587 13.6 18.1635 13.2615 18.187 12.9653L18.2106 12.9559ZM41.758 34.1574C41.7202 34.3408 41.6825 34.5335 41.6684 34.7404C41.6448 35.1401 41.6165 35.5022 41.5741 35.836C41.5552 36.01 41.5033 36.1887 41.4562 36.3814C41.409 36.5554 41.3619 36.7341 41.3289 36.9222C41.2676 37.2795 41.2063 37.6228 41.1261 37.9707C41.0507 38.3046 40.9564 38.6243 40.8621 38.9488L40.8432 39.0099C40.8102 39.1274 40.7772 39.2497 40.7442 39.3672C40.6829 39.5976 40.6216 39.8233 40.5415 40.0443C40.4943 40.1807 40.4519 40.3171 40.4047 40.4534C40.3387 40.6603 40.2727 40.8672 40.1878 41.0694C40.1218 41.234 40.0652 41.4032 40.0134 41.5725C39.9568 41.7606 39.9002 41.9346 39.8248 42.0897C39.7304 42.2872 39.6173 42.4753 39.5041 42.6587C39.4287 42.7809 39.358 42.9079 39.2872 43.0301C39.1316 43.3076 38.9572 43.6038 38.7261 43.9611C38.613 44.1398 38.5375 44.3279 38.4621 44.5066C38.3914 44.6758 38.3301 44.831 38.2452 44.9486C38.1273 45.1131 37.9859 45.273 37.8397 45.4423C37.7407 45.5598 37.6417 45.6727 37.5473 45.7902C37.4483 45.9125 37.3116 46.03 37.1701 46.1476C37.0287 46.2651 36.8872 46.3921 36.7505 46.5379C36.6326 46.6648 36.4912 46.7824 36.3403 46.9093C36.2035 47.0222 36.0668 47.135 35.9395 47.262C35.7745 47.4265 35.6566 47.6193 35.5528 47.7886C35.4633 47.9344 35.3784 48.0707 35.2888 48.1554C35.1615 48.2682 35.0106 48.3623 34.8456 48.4657C34.69 48.5644 34.5344 48.6632 34.3929 48.776C34.11 49.0017 33.8224 49.2227 33.5253 49.4343C33.4075 49.519 33.2896 49.6083 33.1717 49.6929C32.9972 49.8246 32.8275 49.9562 32.6389 50.0691C32.4644 50.1772 32.3183 50.3042 32.1721 50.4217C32.0306 50.544 31.8939 50.6568 31.7572 50.7321C31.578 50.8308 31.3847 50.9155 31.1772 51.0048C31.0358 51.0659 30.899 51.1271 30.7623 51.1929C30.6255 51.2587 30.4558 51.301 30.2766 51.3433C30.0927 51.3904 29.9041 51.4374 29.7155 51.5126C29.4939 51.602 29.2676 51.6772 29.0413 51.7524C28.9234 51.79 28.8055 51.8277 28.6923 51.87C28.5226 51.9264 28.3387 51.9687 28.1407 52.0063C27.9709 52.0392 27.8012 52.0769 27.6361 52.1239C27.4853 52.1662 27.3438 52.2132 27.1976 52.2649C26.9902 52.3355 26.7969 52.3966 26.6035 52.4436C26.3961 52.4906 26.2075 52.5706 26.0283 52.6458C25.8633 52.7163 25.7077 52.7822 25.5662 52.8057C25.3163 52.848 25.0617 52.8715 24.8118 52.895L24.4817 52.9279C24.312 52.9467 24.147 52.975 23.9772 53.0079C23.7745 53.0455 23.5811 53.0784 23.3972 53.0878C23.2464 53.0972 23.0672 53.0737 22.8786 53.0455C22.6947 53.022 22.5061 52.9938 22.3033 52.9938C22.0629 52.9938 21.8224 52.975 21.5819 52.9562C21.4593 52.9467 21.3367 52.9373 21.2141 52.9326C21.035 52.9232 20.8511 52.9326 20.6625 52.9373C20.4692 52.9467 20.2853 52.9562 20.1202 52.9373C19.9882 52.9232 19.8373 52.8621 19.677 52.7963C19.4978 52.7257 19.2951 52.6411 19.0688 52.6035C18.8189 52.5612 18.5784 52.5941 18.3709 52.6223C18.2059 52.6458 18.055 52.6646 17.9513 52.6411C17.791 52.6035 17.6259 52.533 17.4468 52.4577C17.2817 52.3872 17.1073 52.312 16.9187 52.2602C16.7301 52.2038 16.5415 52.1286 16.3434 52.0487C16.1972 51.9875 16.0464 51.9264 15.8955 51.8747C15.7257 51.8136 15.5513 51.7712 15.3768 51.7289C15.1882 51.6819 15.0043 51.6349 14.8487 51.569C14.6695 51.4938 14.4904 51.3951 14.3065 51.2963C14.165 51.2164 14.0236 51.1412 13.8821 51.0706C13.7029 50.9813 13.5191 50.9249 13.3446 50.8637C13.1654 50.8073 12.9957 50.7509 12.8589 50.6757C12.7175 50.5957 12.5807 50.4829 12.4346 50.3606C12.2931 50.2431 12.147 50.1208 11.9772 50.0174C11.8216 49.9186 11.6613 49.8387 11.4963 49.7588C11.3218 49.6741 11.1568 49.5895 11.02 49.4907L10.9022 49.4061C10.6475 49.2227 10.3835 49.0393 10.143 48.8419C9.98271 48.7149 9.83183 48.5691 9.67151 48.414C9.56307 48.3058 9.45462 48.2024 9.34145 48.0989C9.25658 48.019 9.17642 47.8826 9.09155 47.7369C8.99253 47.5582 8.87937 47.3607 8.70963 47.1867C8.46915 46.9469 8.21454 46.6836 7.96464 46.4062C7.82318 46.2463 7.65815 46.1147 7.51198 46.0018C7.37053 45.8937 7.23851 45.7855 7.14892 45.6774C6.97917 45.4611 6.81886 45.2354 6.66326 45.0097L6.51238 44.7934C6.38507 44.6147 6.22947 44.4643 6.09273 44.3373C5.96542 44.215 5.84283 44.0975 5.76739 43.9799C5.63065 43.7589 5.50334 43.5238 5.38075 43.2934L5.23458 43.0254C5.14499 42.8609 5.06955 42.6775 4.98939 42.4847C4.92809 42.3295 4.86208 42.1744 4.79136 42.0239C4.71591 41.864 4.62633 41.7136 4.53674 41.5584C4.43301 41.3844 4.3387 41.2198 4.27269 41.06C4.22554 40.9518 4.21611 40.7873 4.20196 40.618C4.18782 40.4158 4.16896 40.1901 4.0888 39.9644C4.03222 39.8045 3.96621 39.6447 3.89548 39.4895C3.81532 39.3014 3.73988 39.1274 3.68802 38.9535C3.61729 38.7043 3.56071 38.4456 3.50413 38.1917L3.43811 37.8955C3.40039 37.7215 3.38153 37.5334 3.36267 37.3313C3.34853 37.1573 3.32967 36.988 3.30138 36.8187C3.26365 36.6024 3.18821 36.405 3.1222 36.2263C3.0609 36.0617 2.99961 35.9018 2.98546 35.7655C2.96189 35.5633 2.96189 35.3517 2.95717 35.126C2.95717 34.9755 2.95717 34.8251 2.94303 34.6746C2.92417 34.3125 2.91473 33.9505 2.91473 33.5884C2.91473 33.4145 2.94303 33.2311 2.97132 33.0383C2.99961 32.8596 3.02318 32.6856 3.03261 32.507C3.04676 32.3048 3.0279 32.112 3.00904 31.9239C2.99018 31.7405 2.97603 31.5666 2.99489 31.4114C3.00904 31.2797 3.07033 31.1293 3.13635 30.9647C3.20707 30.786 3.28723 30.5838 3.32495 30.3628C3.35796 30.1842 3.3721 30.0008 3.38153 29.8221C3.39568 29.6293 3.40982 29.4506 3.44754 29.2908C3.49941 29.0745 3.50413 28.8535 3.50413 28.6654C3.50413 28.4914 3.50884 28.3268 3.54656 28.1999C3.57485 28.1012 3.66916 27.9836 3.77289 27.8519C3.90491 27.6827 4.0558 27.4946 4.14067 27.2548C4.22083 27.0197 4.23026 26.7799 4.23969 26.573C4.2444 26.4084 4.24912 26.2532 4.29155 26.1545C4.36699 25.9758 4.4613 25.8018 4.56503 25.6185C4.64519 25.4774 4.72063 25.3316 4.79136 25.1906C4.84322 25.0824 4.89509 24.9696 4.94695 24.8614C5.04597 24.6451 5.14971 24.4242 5.26758 24.2126L5.34303 24.0762C5.49391 23.8035 5.64479 23.5308 5.80511 23.2722C5.86169 23.1828 5.989 23.0841 6.12102 22.9853C6.28605 22.8584 6.47466 22.7173 6.61611 22.5151C6.71041 22.3835 6.79528 22.2471 6.88016 22.1154C6.99332 21.9368 7.09705 21.7722 7.21965 21.6217C7.35638 21.4478 7.4554 21.2597 7.54028 21.0904C7.62043 20.9352 7.69587 20.7848 7.78546 20.686L7.8609 20.6014C8.0778 20.3616 8.2947 20.1171 8.52102 19.8914C8.60589 19.8067 8.75206 19.7315 8.90295 19.6516C9.07741 19.5575 9.27544 19.4541 9.4499 19.2989C9.57721 19.1814 9.6998 19.0591 9.8224 18.9322C9.95914 18.7911 10.0864 18.6547 10.2279 18.5419C10.3505 18.4432 10.5061 18.3632 10.6711 18.2739C10.8314 18.1892 10.9965 18.0999 11.1568 17.9871C11.369 17.8366 11.5104 17.6344 11.633 17.4557C11.7226 17.3288 11.8122 17.1971 11.8923 17.1454C12.0149 17.0702 12.1752 17.0137 12.345 16.9526C12.5289 16.8868 12.7175 16.8209 12.9014 16.7175C13.0523 16.6329 13.2031 16.5341 13.3493 16.4354C13.5143 16.3225 13.6699 16.2191 13.8255 16.1439C14.1037 16.0075 14.3914 15.8899 14.679 15.7724L14.8251 15.7113C14.9666 15.6501 15.1411 15.6172 15.3202 15.5796C15.4994 15.542 15.688 15.5044 15.8766 15.4338C16.0369 15.3774 16.2161 15.3445 16.4047 15.3069C16.5792 15.274 16.7583 15.2411 16.9281 15.1893C17.0978 15.1376 17.2629 15.0718 17.4279 15.006C17.4515 14.9966 17.4703 14.9871 17.4939 14.9824C17.5033 15.0154 17.5128 15.0483 17.5175 15.0765C17.5269 15.2128 17.5316 15.3492 17.5411 15.4903C17.5505 15.7113 17.5599 15.9323 17.5835 16.1533C17.6778 17.0278 17.7862 17.625 18.4228 17.9494C18.6633 18.0717 18.9179 18.0999 19.2196 18.0999C19.3422 18.0999 19.4695 18.0999 19.6063 18.0905L19.8986 18.0811C20.3324 18.0717 20.7379 18.0153 21.0868 17.9635C21.4546 17.9071 21.8507 17.8413 22.2562 17.7331C22.6381 17.6297 22.9823 17.5074 23.3831 17.3476C23.4774 17.31 23.6283 17.3053 23.7886 17.2959C24.0432 17.2864 24.3356 17.2723 24.609 17.1313C24.8589 17.0043 25.057 16.8162 25.2267 16.6517C25.3446 16.5388 25.453 16.4354 25.5615 16.3648C25.9104 16.1391 26.2263 15.8852 26.5234 15.6501C26.6271 15.5655 26.7591 15.4903 26.8959 15.4103C27.0986 15.2928 27.3297 15.1564 27.523 14.9636C27.523 14.9636 27.523 14.9636 27.5277 14.9589C27.6031 14.9919 27.6833 15.0295 27.7682 15.0718C27.9379 15.1517 28.1124 15.2364 28.3057 15.3022C28.5273 15.3727 28.7584 15.3915 28.9564 15.4103C29.1308 15.4244 29.3006 15.4385 29.4185 15.4856C29.6637 15.5796 29.9041 15.6925 30.1446 15.8053L30.4369 15.9417C30.569 16.0028 30.701 16.1109 30.8472 16.2238C31.0028 16.3507 31.1631 16.4777 31.3611 16.5811L31.611 16.7081C31.8562 16.8351 32.1014 16.962 32.3371 17.1031C32.4644 17.1783 32.5917 17.2488 32.7238 17.3241C32.9265 17.4369 33.1198 17.5451 33.2943 17.6626C33.4735 17.7849 33.6432 17.9259 33.8224 18.0717C33.9356 18.1657 34.0487 18.2551 34.1619 18.3444C34.3128 18.462 34.4542 18.5983 34.6051 18.7488C34.7277 18.8663 34.8456 18.9886 34.9729 19.0967C35.1709 19.266 35.3548 19.4494 35.534 19.6328L35.765 19.8585C35.864 19.9525 35.9631 20.0465 36.0621 20.1359C36.2318 20.2911 36.4016 20.4509 36.5572 20.6202C36.6986 20.7707 36.8212 20.9399 36.958 21.1186C37.0523 21.2409 37.1418 21.3678 37.2409 21.4854C37.3917 21.6688 37.5804 21.8051 37.7454 21.9274C37.8868 22.0308 38.0189 22.1249 38.0896 22.2283C38.198 22.3741 38.2923 22.548 38.3866 22.7267C38.4715 22.8819 38.5564 23.037 38.6507 23.1828C38.7686 23.3662 38.91 23.5167 39.0515 23.6624C39.1788 23.7941 39.2967 23.921 39.3674 24.048C39.4947 24.269 39.6079 24.5041 39.7163 24.7392L39.8625 25.0448C39.9379 25.2 39.9945 25.3787 40.0558 25.5715C40.1124 25.7501 40.169 25.9241 40.2397 26.0934C40.301 26.2438 40.3764 26.3896 40.4471 26.5354C40.5415 26.7329 40.631 26.9162 40.7018 27.1043C40.8244 27.4429 40.9517 27.8002 41.0554 28.1576C41.1308 28.4162 41.1921 28.6795 41.2534 28.9428L41.3195 29.2343C41.3477 29.3519 41.3289 29.5118 41.3147 29.681C41.2959 29.8879 41.2723 30.1183 41.3147 30.3628L41.3572 30.6073C41.409 30.8848 41.4562 31.1622 41.4892 31.4443C41.5081 31.6183 41.5411 31.7923 41.5741 31.9615C41.6118 32.159 41.6495 32.3518 41.6589 32.5305C41.6684 32.728 41.7014 32.916 41.7344 33.0947C41.7674 33.2875 41.8004 33.4662 41.8004 33.6307C41.8004 33.7859 41.7627 33.9646 41.7297 34.148L41.758 34.1574Z" fill="#DA6022"/>
<path d="M20.5635 33.9181C20.8323 33.6594 21.1341 33.3679 21.3415 32.9871C21.4924 32.7096 21.5301 32.3993 21.5632 32.1266C21.582 31.9714 21.6009 31.8304 21.6339 31.694C21.6622 31.5858 21.6952 31.4777 21.7329 31.3648C21.7942 31.1721 21.8649 30.9558 21.9026 30.7348C21.9215 30.6454 21.9309 30.5561 21.9404 30.4574C21.9687 30.0812 21.9687 29.6721 21.9404 29.2066C21.9168 28.8869 21.8272 28.6047 21.747 28.3555C21.7093 28.2286 21.6669 28.1063 21.6386 27.9841C21.582 27.7255 21.5066 27.4716 21.417 27.2223C21.417 27.2223 21.417 27.2223 21.417 27.2176C21.3651 27.0719 21.3133 26.9355 21.252 26.7945C21.0916 26.423 20.9077 26.0327 20.6437 25.6848C20.573 25.586 20.507 25.4638 20.4362 25.3321C20.2995 25.0735 20.1439 24.782 19.8657 24.5751C19.5215 24.3212 19.0783 24.1049 18.6068 23.9638C18.1447 23.8275 17.6355 23.8651 17.2252 23.8933C16.8103 23.9215 16.452 24.0908 16.1408 24.2413L15.9474 24.3306C15.872 24.3635 15.7966 24.3964 15.7164 24.4293C15.4099 24.561 15.0563 24.7115 14.7781 24.9889C14.4763 25.2804 14.1981 25.6519 13.9765 26.0656C13.9388 26.1315 13.9011 26.202 13.8586 26.2725C13.6983 26.5594 13.5097 26.8791 13.406 27.2647C13.3117 27.6267 13.241 28.0687 13.2032 28.5389C13.1655 28.9715 13.1608 29.4135 13.1891 29.8179C13.2174 30.2646 13.3117 30.6925 13.3966 31.0827C13.4956 31.5012 13.6559 31.8868 13.8021 32.23L13.8303 32.3006C13.9859 32.6626 14.217 32.9541 14.4197 33.2175L14.5518 33.3867C14.7922 33.7112 15.0846 34.0826 15.4571 34.3553C15.8343 34.6375 16.2445 34.8491 16.6736 34.976C16.8433 35.0277 17.0178 35.0418 17.1828 35.0418C17.3714 35.0418 17.5506 35.0183 17.7156 34.9995C17.8146 34.9854 17.9136 34.976 18.0174 34.9666C18.4936 34.9337 18.8944 34.8726 19.3046 34.6892C19.3753 34.6563 19.4413 34.6281 19.5121 34.5999C19.828 34.4635 20.1816 34.313 20.474 34.0215L20.573 33.9275L20.5635 33.9181ZM19.9081 33.241L19.8044 33.3444C19.6394 33.509 19.3942 33.6171 19.1349 33.7253C19.0594 33.7582 18.9793 33.7911 18.9085 33.824C18.6303 33.951 18.3239 33.9933 17.9466 34.0168C17.8288 34.0262 17.7156 34.0403 17.5977 34.0544C17.3384 34.0873 17.1121 34.1108 16.9329 34.0591C16.617 33.9651 16.3011 33.8005 16.0134 33.5842C15.7447 33.3867 15.5042 33.0858 15.3062 32.8131L15.1647 32.6297C14.9903 32.404 14.8064 32.1689 14.6979 31.9244L14.6696 31.8586C14.5329 31.5388 14.3962 31.205 14.316 30.8664C14.2406 30.5185 14.1557 30.1282 14.1274 29.752C14.1038 29.3947 14.1085 28.9997 14.1415 28.6142C14.1745 28.1957 14.2358 27.8101 14.316 27.5092C14.3914 27.2459 14.5376 26.9872 14.6791 26.738C14.7215 26.6628 14.7639 26.5876 14.8064 26.5123C14.9855 26.1832 15.2024 25.887 15.4429 25.6566C15.6032 25.4967 15.839 25.398 16.0936 25.2898C16.1832 25.2522 16.2681 25.2146 16.3482 25.177L16.551 25.0829C16.815 24.9607 17.0602 24.8431 17.296 24.8243C17.4704 24.8102 17.6543 24.8008 17.8288 24.8008C18.0032 24.8008 18.1918 24.8149 18.3427 24.8572C18.7011 24.9654 19.05 25.1346 19.3046 25.318C19.4083 25.398 19.5026 25.5719 19.6017 25.76C19.6818 25.9058 19.7667 26.0751 19.8846 26.2349C19.9317 26.3007 19.9694 26.376 20.0166 26.4465C19.8751 26.4277 19.7384 26.4183 19.5969 26.4277C19.0358 26.4653 18.536 26.6487 18.1824 26.9402C17.8052 27.26 17.4846 27.702 17.3243 28.1298C17.1309 28.6424 17.1356 29.2348 17.1592 29.5405C17.1875 29.926 17.2677 30.4809 17.5081 30.9276C17.725 31.3178 18.1022 31.5247 18.404 31.694C18.4842 31.7363 18.5596 31.7786 18.6303 31.8256C18.9745 32.0372 19.3895 32.2535 19.8799 32.2535C19.9176 32.2535 19.96 32.2535 19.9977 32.2535C20.2382 32.2347 20.441 32.1595 20.6154 32.056C20.5918 32.2535 20.5683 32.4322 20.507 32.5451C20.3655 32.799 20.1298 33.0294 19.8987 33.2504L19.9081 33.241Z" fill="#DA6022"/>
<path d="M31.4936 28.7274C31.4888 28.6663 31.4794 28.6052 31.4747 28.5394C31.4511 28.1538 31.4087 27.7024 31.3191 27.2839C31.3002 27.204 31.2767 27.1288 31.2531 27.0629C31.2531 27.0582 31.2531 27.0488 31.2484 27.0441C31.2201 26.9595 31.1871 26.8795 31.1635 26.8231C31.1635 26.8231 31.1635 26.8231 31.1635 26.8184C31.1022 26.6821 31.0362 26.5551 30.9749 26.4376C30.9183 26.3294 30.857 26.2213 30.8146 26.1131C30.758 25.9862 30.7203 25.8498 30.6778 25.7134C30.5977 25.436 30.5128 25.1492 30.3242 24.8953C30.0743 24.5567 29.749 24.3216 29.4613 24.1147L29.3152 24.0113C29.004 23.7809 28.6645 23.7104 28.3674 23.6445C28.2637 23.621 28.16 23.6022 28.0609 23.5693C27.9619 23.5411 27.8488 23.4847 27.7309 23.4235C27.4668 23.2919 27.1415 23.1226 26.7549 23.1555C26.3682 23.1837 26.0665 23.3812 25.8165 23.5458C25.7081 23.6163 25.6044 23.6869 25.5101 23.7292C25.1564 23.889 24.7604 24.0724 24.402 24.4251C24.0672 24.7589 23.8362 25.1445 23.6523 25.4783C23.4684 25.8122 23.3317 26.1789 23.1997 26.6633C23.1714 26.762 23.1101 26.8842 23.0393 27.0159C22.912 27.2604 22.7659 27.5378 22.7376 27.8764C22.714 28.1961 22.7376 28.53 22.7706 28.8497C22.78 28.9484 22.7894 29.0472 22.7942 29.1459C22.8177 29.4657 22.9215 29.7384 23.0158 29.9829C23.0676 30.1193 23.1148 30.2462 23.1431 30.3638C23.2279 30.7493 23.3553 31.1255 23.5344 31.5534C23.5863 31.6756 23.624 31.812 23.6617 31.9625C23.7277 32.2258 23.8079 32.522 23.9965 32.7759C24.2606 33.1333 24.6 33.3825 24.9018 33.6035L25.1659 33.801C25.4535 34.0219 25.7741 34.2712 26.1655 34.384C26.2833 34.4216 26.4012 34.4357 26.5144 34.4357C26.7407 34.4357 26.9576 34.3793 27.1556 34.3276C27.2924 34.29 27.4244 34.2571 27.5329 34.2476C27.6319 34.2429 27.7356 34.2382 27.8299 34.2382C28.1411 34.2335 28.4947 34.2241 28.8484 34.069C29.2444 33.8903 29.5321 33.6035 29.8055 33.3307L29.8904 33.2461C30.2205 32.9217 30.4704 32.5925 30.6778 32.2164C30.725 32.127 30.7816 32.0377 30.8382 31.9483C30.9938 31.6991 31.1682 31.4123 31.2672 31.0644C31.2908 30.9703 31.3238 30.8716 31.3521 30.7728C31.4417 30.486 31.5407 30.1616 31.569 29.8089C31.5926 29.5174 31.5549 29.2259 31.5219 28.9437C31.5124 28.8732 31.5077 28.8027 31.4983 28.7321L31.4936 28.7274ZM29.8433 31.765C29.683 32.0565 29.4896 32.3151 29.2256 32.5737L29.1407 32.6584C28.905 32.8935 28.6975 33.1003 28.457 33.2085C28.2873 33.2884 28.0704 33.2884 27.8158 33.2931C27.7026 33.2931 27.5847 33.2931 27.4668 33.3072C27.2688 33.3213 27.0802 33.3684 26.9152 33.4154C26.7313 33.4624 26.538 33.5141 26.4342 33.4812C26.2126 33.4154 25.9816 33.2367 25.7411 33.0533L25.4629 32.8417C25.2036 32.6537 24.9348 32.4562 24.7556 32.2117C24.6755 32.1035 24.6283 31.9201 24.5765 31.7226C24.534 31.5581 24.4822 31.3653 24.4067 31.1819C24.2464 30.8057 24.1427 30.4907 24.0672 30.1616C24.0295 29.9782 23.9635 29.8136 23.9022 29.649C23.8268 29.4516 23.756 29.2588 23.7419 29.0801C23.7325 28.9767 23.723 28.8685 23.7183 28.7651C23.6947 28.4688 23.6665 28.1914 23.6853 27.9469C23.6947 27.8011 23.7843 27.6272 23.8833 27.4485C23.9729 27.2792 24.0625 27.1052 24.1191 26.9031C24.2275 26.494 24.3454 26.1883 24.4869 25.925C24.6991 25.5301 24.8688 25.2903 25.0716 25.0928C25.2932 24.8718 25.5478 24.7495 25.9109 24.5849C26.0712 24.5097 26.2079 24.4204 26.3446 24.331C26.5238 24.2135 26.6888 24.1053 26.8256 24.0959C26.8303 24.0959 26.8397 24.0959 26.8444 24.0959C26.9718 24.0959 27.1368 24.1806 27.3112 24.2652C27.4621 24.3404 27.6177 24.4204 27.7969 24.4721C27.9195 24.5097 28.0515 24.5379 28.1788 24.5661C28.4146 24.6132 28.6126 24.6602 28.7588 24.7636L28.9144 24.8765C29.1549 25.0504 29.4095 25.2338 29.5698 25.4548C29.6594 25.5724 29.716 25.7699 29.7773 25.9768C29.7773 25.9768 29.7773 25.9815 29.7773 25.9862C29.5887 25.9391 29.3812 25.9062 29.1407 25.925C28.7588 25.9532 28.2637 26.0285 27.8252 26.3999C27.448 26.715 27.2735 27.1288 27.1179 27.5519C27.0849 27.6366 27.0378 27.7259 26.9953 27.8105C26.8539 28.0927 26.6794 28.4453 26.7077 28.8685C26.7407 29.3622 26.9482 29.7948 27.1651 30.1804C27.415 30.6365 27.745 31.0032 28.1081 31.2242C28.5796 31.5205 29.0228 31.6709 29.4236 31.6709C29.4613 31.6709 29.4991 31.6709 29.5368 31.6709C29.6877 31.6615 29.8291 31.6239 29.9611 31.5722C29.9234 31.638 29.881 31.6991 29.848 31.765H29.8433Z" fill="#DA6022"/>
<path d="M25.2359 35.0691C25.0001 35.0549 24.755 35.2571 24.7455 35.5205C24.7267 35.906 24.7219 35.9154 24.5805 36.2117C24.5428 36.2869 24.5003 36.3809 24.4438 36.4938C24.34 36.7148 24.1561 37.0204 23.8544 37.232C23.6516 37.3731 23.3027 37.4154 22.9585 37.4436C22.8359 37.453 22.7133 37.4624 22.5954 37.4765C22.2984 37.5047 22.0438 37.5282 21.8834 37.4812C21.6335 37.406 21.4874 37.2132 21.3223 36.9922C21.2846 36.9405 21.2422 36.8887 21.2045 36.8417C21.1054 36.7242 21.03 36.6301 20.964 36.5596C20.8571 36.4373 20.799 36.2712 20.7895 36.0612C20.7801 35.8026 20.5585 35.5863 20.2992 35.6098C20.0398 35.6192 19.8371 35.8402 19.8465 36.0988C19.8701 36.6724 19.9455 36.837 20.252 37.185C20.3086 37.2508 20.3793 37.3307 20.4642 37.4389C20.4972 37.4765 20.5302 37.5235 20.5632 37.5658C20.7754 37.8433 21.063 38.2288 21.61 38.3887C21.775 38.4357 21.9447 38.4545 22.1192 38.4545C22.2937 38.4545 22.4917 38.4357 22.685 38.4169C22.7935 38.4075 22.9019 38.3934 23.0198 38.3887C23.5762 38.3511 24.0194 38.2711 24.3919 38.0078C24.7644 37.7445 25.0756 37.3589 25.2925 36.8934C25.3443 36.7853 25.3821 36.7007 25.4198 36.6301C25.6037 36.2587 25.6555 36.1223 25.6791 35.5675C25.6885 35.3089 25.4858 35.0879 25.2265 35.0785L25.2359 35.0691Z" fill="#DA6022"/>
<path d="M11.3029 36.2643C11.3454 36.2173 11.3736 36.1938 11.4538 36.1421C11.5292 36.0951 11.5623 36.0809 11.6235 36.0621C11.7084 36.0339 11.831 35.9916 12.0055 35.8788C12.2224 35.7377 12.2837 35.4462 12.1422 35.2299C12.0008 35.0136 11.7084 34.9525 11.4915 35.0935C11.4161 35.1452 11.3831 35.1546 11.3265 35.1735C11.2416 35.2017 11.119 35.244 10.9446 35.3568C10.7701 35.4697 10.6852 35.559 10.6239 35.6249C10.5815 35.6719 10.5532 35.6954 10.4731 35.7471C10.3599 35.8223 10.2986 35.8552 10.2373 35.8882C10.1666 35.9305 10.0958 35.9681 9.95439 36.0574C9.82237 36.1421 9.75636 36.1891 9.69506 36.2314C9.63376 36.2737 9.57718 36.3113 9.45459 36.3913C9.23769 36.5323 9.1764 36.8239 9.31785 37.0402C9.40744 37.1765 9.55832 37.2565 9.71392 37.2565C9.80351 37.2565 9.8931 37.2329 9.96854 37.1812C10.1006 37.0966 10.1666 37.0496 10.2279 37.0072C10.2892 36.9649 10.3457 36.9273 10.4683 36.8474C10.5815 36.7721 10.6428 36.7392 10.7041 36.7063C10.7748 36.664 10.8456 36.6264 10.987 36.537C11.1615 36.4242 11.2463 36.3349 11.3076 36.269L11.3029 36.2643Z" fill="#DA6022"/>
<path d="M13.1833 35.4412C13.1031 35.4929 13.0701 35.507 13.0088 35.5258C12.9239 35.554 12.8108 35.5963 12.6363 35.7092C12.4996 35.7985 12.4336 35.8455 12.3675 35.8973C12.311 35.9396 12.2544 35.9772 12.1412 36.0524C11.9809 36.1559 11.9102 36.217 11.8395 36.2828C11.797 36.3205 11.7546 36.3581 11.6603 36.4192L11.1558 36.7483C10.9389 36.8894 10.8776 37.1809 11.019 37.3972C11.1086 37.5336 11.2595 37.6135 11.4151 37.6135C11.5047 37.6135 11.5943 37.59 11.6697 37.5383L12.1742 37.2091C12.3298 37.1057 12.4006 37.0446 12.4713 36.9787C12.5137 36.9411 12.5562 36.9035 12.6505 36.8377C12.7872 36.7483 12.8532 36.7013 12.9192 36.6496C12.9758 36.6073 13.0324 36.5697 13.1503 36.4944C13.2304 36.4427 13.2634 36.4286 13.3247 36.4098C13.4096 36.3816 13.5228 36.3393 13.6972 36.2264C13.9141 36.0854 13.9754 35.7938 13.834 35.5775C13.6925 35.3612 13.4002 35.3001 13.1833 35.4412Z" fill="#DA6022"/>
<path d="M33.8043 34.2463C33.8845 34.2087 33.9647 34.1664 34.1108 34.0677C34.2523 33.9783 34.3183 33.9266 34.3843 33.8749C34.4362 33.8326 34.4928 33.7949 34.6059 33.7197C34.8228 33.5786 34.8841 33.2871 34.7427 33.0708C34.6012 32.8545 34.3089 32.7887 34.092 32.9345C33.9505 33.0285 33.8845 33.0755 33.8138 33.1272C33.7619 33.1696 33.7053 33.2072 33.5969 33.2824C33.4931 33.3529 33.4366 33.3812 33.38 33.4094C33.2998 33.4517 33.2197 33.4893 33.0735 33.588C32.8943 33.7056 32.8095 33.7996 32.7482 33.8655C32.7057 33.9125 32.6869 33.936 32.6114 33.983C32.5124 34.0488 32.4605 34.0724 32.404 34.0959C32.3191 34.1335 32.2342 34.1758 32.0786 34.2745C31.8617 34.4156 31.8004 34.7071 31.9419 34.9234C32.0315 35.0598 32.1823 35.135 32.3379 35.135C32.4275 35.135 32.5171 35.1115 32.5926 35.0598C32.6916 34.994 32.7434 34.9704 32.8 34.9469C32.8849 34.9093 32.9698 34.867 33.1207 34.7683C33.2998 34.6507 33.3847 34.5567 33.446 34.4908C33.4884 34.4438 33.5073 34.4203 33.5827 34.3733C33.6865 34.3028 33.7431 34.2745 33.7996 34.2463H33.8043Z" fill="#DA6022"/>
<path d="M35.8218 33.3399L35.3125 33.6644C35.2088 33.7302 35.1522 33.7584 35.0956 33.7866C35.0155 33.8242 34.9353 33.8665 34.7844 33.9653C34.676 34.0358 34.6147 34.0687 34.5581 34.0969C34.4827 34.1346 34.4072 34.1769 34.2658 34.2709C34.1243 34.365 34.0536 34.4167 33.9876 34.4684C33.9357 34.5107 33.8838 34.5483 33.7754 34.6189C33.5585 34.7599 33.4972 35.0515 33.6387 35.2678C33.7282 35.4041 33.8791 35.484 34.0347 35.484C34.1243 35.484 34.2139 35.4605 34.2893 35.4088C34.4308 35.3148 34.5015 35.2631 34.5675 35.2113C34.6194 35.1737 34.6713 35.1314 34.7797 35.0609C34.8882 34.9903 34.9495 34.9574 35.006 34.9292C35.0815 34.8916 35.1569 34.8493 35.2984 34.7552C35.4021 34.6894 35.4587 34.6612 35.5153 34.633C35.5954 34.5954 35.6756 34.553 35.8265 34.4543L36.3357 34.1299C36.5526 33.9888 36.6139 33.6973 36.4724 33.481C36.331 33.2647 36.0386 33.1989 35.8218 33.3446V33.3399Z" fill="#DA6022"/>
<path d="M20.1017 15.754C20.1772 15.7964 20.2573 15.8199 20.3375 15.8199C20.4978 15.8199 20.6581 15.7352 20.7477 15.5848C20.8326 15.4437 20.8609 15.4108 20.9175 15.3497C21.0118 15.2509 21.1014 15.1475 21.2569 14.9124C21.3465 14.776 21.4031 14.6255 21.455 14.4798C21.5021 14.3481 21.5493 14.2212 21.6153 14.1271C21.6955 14.0143 21.785 13.9061 21.8841 13.7933C21.9737 13.6851 22.0632 13.577 22.1528 13.4594C22.2047 13.3936 22.2943 13.3184 22.3933 13.2384C22.5159 13.1397 22.6621 13.0221 22.7847 12.8717C22.879 12.7588 22.9827 12.6554 23.0864 12.5472C23.1807 12.4532 23.275 12.3545 23.3646 12.2557C23.5014 12.1005 23.5815 11.9313 23.6522 11.7761C23.6994 11.668 23.7513 11.5598 23.8031 11.5081C23.9351 11.3717 24.0766 11.2495 24.2228 11.1225L24.4302 10.9391C24.4915 10.8827 24.6 10.8357 24.7179 10.784C24.8593 10.7181 25.0243 10.6476 25.1705 10.5301C25.3261 10.4078 25.4346 10.2668 25.5336 10.1398C25.6043 10.0458 25.6797 9.94701 25.741 9.9094C26.0334 9.72131 26.2503 9.59436 26.453 9.50032C26.6133 9.42038 26.8067 9.37336 27.0047 9.31694L27.2169 9.26051C27.4668 9.18998 27.6082 8.92667 27.5375 8.67746C27.4668 8.42825 27.2027 8.28249 26.9528 8.35772L26.7595 8.40944C26.5379 8.47057 26.2833 8.5364 26.0428 8.65395C25.807 8.7668 25.5571 8.91256 25.2318 9.11945C25.0338 9.24641 24.9017 9.41568 24.7886 9.56615C24.7179 9.65549 24.6518 9.74482 24.5905 9.79185C24.5292 9.83887 24.4302 9.88589 24.3265 9.93291C24.1568 10.0081 23.9681 10.0975 23.7984 10.2526L23.6004 10.4266C23.4401 10.5677 23.2797 10.7087 23.1336 10.8592C22.9685 11.0238 22.879 11.2166 22.7988 11.3858C22.7516 11.4846 22.7045 11.588 22.6621 11.635C22.5819 11.7244 22.497 11.809 22.4169 11.8937C22.2896 12.0206 22.167 12.1476 22.0585 12.2839C21.9972 12.3592 21.9029 12.4344 21.8039 12.5143C21.6719 12.6178 21.5257 12.74 21.4078 12.8952C21.3277 12.9986 21.2475 13.0974 21.1674 13.1914C21.0542 13.3278 20.9458 13.4547 20.8562 13.5864C20.7147 13.7839 20.6393 13.9955 20.578 14.16C20.545 14.2541 20.5072 14.3481 20.479 14.3951C20.3564 14.5832 20.2998 14.6444 20.2432 14.7008C20.1489 14.7995 20.0687 14.8889 19.9414 15.1099C19.8094 15.3356 19.8848 15.6224 20.1112 15.754H20.1017Z" fill="#DA6022"/>
</g>
</svg>
