<svg width="32" height="32" viewBox="0 0 32 32" fill="none" xmlns="http://www.w3.org/2000/svg">
<g opacity="0.75">
<path d="M29.9411 3.79157C29.9064 3.49494 29.863 3.21575 29.8977 3.01509C29.9758 2.53524 29.6547 2.09029 29.186 2.01177C28.7086 1.93325 28.266 2.25606 28.1878 2.72718C28.1358 3.01509 28.075 3.1983 27.3199 3.44259C26.7991 3.60836 26.1655 3.71305 25.3149 3.74795C24.8549 3.7654 24.4122 3.88754 24.013 3.99223C23.6571 4.0882 23.2839 4.16672 23.0582 4.17545C22.7284 4.17545 22.4159 4.14928 22.1295 4.13183C21.5567 4.09693 21.0533 4.06203 20.6193 4.13183C20.4023 4.16672 20.1853 4.20162 19.9596 4.2278C19.4562 4.29759 18.9441 4.37611 18.4147 4.50698L17.9199 4.62912C17.3818 4.75999 16.8176 4.89958 16.2622 5.09152C16.0278 5.17004 15.7935 5.24856 15.5504 5.31836C15.0904 5.45795 14.613 5.60627 14.1357 5.81566C13.884 5.92908 13.6149 6.01632 13.3458 6.10357C12.9118 6.25188 12.4605 6.4002 12.0265 6.63576C11.5752 6.88877 11.2193 7.24648 10.9069 7.56056C10.6899 7.77867 10.4903 7.98806 10.2819 8.11893C10.0563 8.27597 9.80457 8.39811 9.55286 8.52898C9.14493 8.73837 8.72831 8.95648 8.33773 9.27056C7.93847 9.59337 7.61733 9.9598 7.30486 10.3175C7.13127 10.5182 6.949 10.7188 6.76673 10.902C6.24596 11.4168 5.78594 11.9839 5.34329 12.5248L5.28253 12.6033C4.81383 13.1704 4.48401 13.755 4.13683 14.3657C4.03268 14.5489 3.87644 14.7408 3.72021 14.9415C3.44247 15.2818 3.13 15.6744 2.94773 16.1629C2.76546 16.6689 2.77414 17.1662 2.78282 17.6112C2.78282 17.8729 2.78282 18.1172 2.75678 18.3004C2.72207 18.4836 2.60923 18.7105 2.4964 18.946C2.31413 19.3386 2.09714 19.7836 2.06242 20.3071C2.01902 20.9091 1.99298 21.5808 2.00166 22.3835C2.00166 22.8808 2.18393 23.317 2.33149 23.7009C2.43564 23.9626 2.53112 24.2069 2.54847 24.3901C2.56583 24.6432 2.57451 24.8962 2.59187 25.1579C2.60923 25.568 2.62659 25.978 2.66999 26.3881C2.84358 28.0108 3.04321 29.1188 4.21495 29.7208C4.6576 29.9477 5.1263 30 5.68179 30C5.90746 30 6.14181 30 6.39351 29.9826L6.93164 29.9651C7.73016 29.9477 8.4766 29.843 9.11889 29.747C9.79589 29.6423 10.525 29.5202 11.2714 29.3195C11.9745 29.1276 12.6081 28.9007 13.3458 28.6041C13.5194 28.5343 13.7972 28.5256 14.0923 28.5081C14.561 28.4907 15.0991 28.4645 15.6025 28.2028C16.0625 27.9672 16.4271 27.6182 16.7395 27.3129C16.9565 27.1035 17.1561 26.9115 17.3558 26.7807C17.9981 26.3619 18.5796 25.8908 19.1264 25.4545C19.3174 25.2975 19.5604 25.1579 19.8121 25.0096C20.1853 24.7915 20.6106 24.5385 20.9665 24.1808C21.3223 23.8318 21.5654 23.4217 21.7823 23.064C21.9299 22.8197 22.0688 22.5842 22.2163 22.4097C22.5288 22.0432 22.7458 21.6594 22.9541 21.2842C23.0843 21.0574 23.2058 20.8218 23.362 20.6124C23.4749 20.4554 23.6918 20.2983 23.9175 20.1239C24.2734 19.8621 24.6726 19.5568 24.9417 19.1031C25.1847 18.7018 25.341 18.2917 25.4885 17.8991C25.5927 17.6461 25.6881 17.3844 25.8096 17.1401C26.018 16.7213 26.1308 16.2851 26.2349 15.9012C26.3044 15.6133 26.3825 15.3428 26.478 15.116C26.5648 14.9153 26.7297 14.6972 26.9119 14.4704C27.1637 14.1388 27.4588 13.7724 27.6324 13.3013C27.8059 12.8302 27.9535 12.3416 28.101 11.853L28.2746 11.2772C28.4135 10.8323 28.4482 10.3873 28.4743 9.9947C28.5003 9.68934 28.5177 9.41016 28.5784 9.16587C28.6479 8.90413 28.7607 8.63367 28.8735 8.35449C29.0211 7.98806 29.1773 7.60418 29.2728 7.17668C29.3335 6.92367 29.4377 6.65321 29.5592 6.3653C29.7068 5.99015 29.863 5.60627 29.9498 5.17004C30.0453 4.68147 29.9845 4.21035 29.9324 3.8003L29.9411 3.79157ZM27.9622 5.70224C27.8233 6.04249 27.6844 6.39148 27.5976 6.78408C27.5282 7.07199 27.4067 7.37734 27.2765 7.69143C27.1463 8.01423 27.0161 8.34577 26.9119 8.71219C26.8078 9.1048 26.7731 9.50613 26.747 9.85511C26.721 10.1866 26.695 10.492 26.6168 10.745L26.4346 11.3295C26.2957 11.7832 26.1568 12.2369 26.0006 12.6818C25.9225 12.8912 25.7402 13.1268 25.5406 13.3798C25.3149 13.6764 25.0545 14.008 24.8809 14.4093C24.7247 14.767 24.6379 15.116 24.5511 15.4562C24.4643 15.7878 24.3862 16.0931 24.2647 16.3461C24.1171 16.6428 23.9956 16.9481 23.8741 17.2622C23.7439 17.6025 23.6137 17.934 23.4488 18.2045C23.3533 18.3702 23.119 18.5447 22.8673 18.7279C22.5548 18.9635 22.2076 19.2252 21.9386 19.6004C21.7476 19.8708 21.5914 20.15 21.4265 20.4379C21.2529 20.752 21.088 21.0487 20.8797 21.2929C20.6366 21.5808 20.4544 21.8862 20.2808 22.1828C20.0985 22.4795 19.9336 22.7674 19.7426 22.9593C19.5343 23.1687 19.2392 23.3432 18.9181 23.5351C18.623 23.7096 18.3192 23.8928 18.0328 24.1284C17.5207 24.5472 16.9739 24.9834 16.401 25.3586C16.0712 25.5767 15.7935 25.8384 15.5331 26.0914C15.2727 26.3357 15.0297 26.5713 14.7953 26.6934C14.6304 26.7807 14.3179 26.7894 14.0055 26.8068C13.6062 26.8243 13.1462 26.8417 12.7035 27.0162C12.0179 27.2867 11.4276 27.5048 10.8114 27.6706C10.1865 27.845 9.5789 27.9497 8.84982 28.0544C8.0947 28.1679 7.50449 28.2376 6.87089 28.2551L6.30672 28.2725C5.69047 28.2987 5.21309 28.3162 4.98743 28.2028C4.69232 28.0544 4.53609 27.8102 4.37118 26.231C4.33646 25.8559 4.3191 25.4807 4.30174 25.1056C4.29306 24.8351 4.2757 24.5646 4.25834 24.2942C4.22363 23.8405 4.06739 23.4392 3.92852 23.0815C3.82437 22.811 3.72021 22.558 3.72021 22.3922C3.72021 21.6506 3.72889 21.0225 3.77229 20.4728C3.78965 20.2722 3.91116 20.0017 4.05003 19.7225C4.19759 19.4172 4.3625 19.0682 4.44061 18.6756C4.51873 18.3004 4.51005 17.934 4.50137 17.6112C4.50137 17.2971 4.49269 16.9918 4.56213 16.7998C4.64024 16.5817 4.83987 16.3374 5.04818 16.0757C5.23913 15.8401 5.44744 15.5784 5.64707 15.2381C5.95086 14.7147 6.23728 14.2086 6.6105 13.755L6.67126 13.6764C7.10523 13.1442 7.51317 12.6382 7.97319 12.1846C8.19018 11.9752 8.38981 11.7483 8.58944 11.5128C8.86718 11.1987 9.13625 10.8933 9.42267 10.6578C9.67438 10.4571 9.99552 10.2913 10.334 10.1168C10.6291 9.9598 10.9416 9.80276 11.2367 9.6021C11.5839 9.36653 11.8703 9.07862 12.122 8.81689C12.3737 8.56388 12.6081 8.32832 12.8424 8.19745C13.1375 8.03168 13.4934 7.91826 13.8753 7.7874C14.1964 7.6827 14.5176 7.56928 14.8213 7.43842C15.1946 7.27265 15.6025 7.15051 16.0365 7.01964C16.2969 6.94112 16.5573 6.8626 16.809 6.76663C17.2863 6.60086 17.7898 6.47872 18.3105 6.34785L18.8226 6.21698C19.2566 6.10357 19.7079 6.04249 20.1766 5.9727C20.411 5.9378 20.6453 5.9029 20.871 5.868C20.9578 5.85056 21.0706 5.85056 21.1921 5.85056C21.4178 5.85056 21.6955 5.868 21.982 5.88545C22.2944 5.9029 22.6243 5.92908 22.9801 5.9378C23.4922 5.9378 23.9609 5.82438 24.4209 5.70224C24.7594 5.61499 25.0719 5.52775 25.3496 5.51902C26.3565 5.4754 27.1463 5.35326 27.8146 5.12642C27.9361 5.09152 28.0576 5.0479 28.1792 4.99555C28.1184 5.22239 28.0229 5.46668 27.9188 5.71969L27.9622 5.70224Z" fill="#DA6022"/>
<path d="M19.8913 11.9323L19.5354 12.0283C19.1275 12.1417 18.6588 12.2638 18.2161 12.4819C17.7822 12.6913 17.3222 12.9618 16.7233 13.3457C16.3587 13.5812 16.1157 13.8953 15.9074 14.1745C15.7772 14.3403 15.6557 14.506 15.5428 14.5933C15.43 14.6805 15.2477 14.7678 15.0568 14.855C14.7443 14.9946 14.3971 15.1604 14.0847 15.4483L13.7201 15.7711C13.425 16.0328 13.1299 16.2946 12.8609 16.5737C12.5571 16.8791 12.3922 17.2368 12.2446 17.5509C12.1578 17.7341 12.071 17.926 11.9929 18.0133C11.8454 18.1791 11.6891 18.3361 11.5416 18.4931C11.3072 18.7287 11.0816 18.9643 10.8819 19.2173C10.7691 19.3569 10.5955 19.4965 10.4132 19.6448C10.1702 19.8367 9.90115 20.0635 9.68416 20.3515C9.5366 20.5434 9.38905 20.7266 9.2415 20.9011C9.03319 21.1541 8.83356 21.3897 8.66865 21.634C8.40826 22.0004 8.26939 22.393 8.15656 22.6983C8.0958 22.8728 8.02636 23.0473 7.97429 23.1346C7.74862 23.4836 7.64446 23.597 7.54031 23.7017C7.36672 23.8849 7.21917 24.0506 6.98482 24.4607C6.74179 24.8795 6.88066 25.4117 7.29728 25.656C7.43616 25.7345 7.58371 25.7781 7.73126 25.7781C8.02636 25.7781 8.32147 25.6211 8.48638 25.3419C8.64261 25.0801 8.69469 25.0191 8.79884 24.9057C8.97243 24.7224 9.13735 24.5305 9.42377 24.0943C9.58868 23.8413 9.69284 23.5621 9.78831 23.2916C9.87511 23.0473 9.9619 22.8118 10.0834 22.6373C10.231 22.4279 10.3959 22.2272 10.5782 22.0178C10.7431 21.8172 10.908 21.6165 11.0729 21.3984C11.1684 21.2763 11.3333 21.1367 11.5155 20.9883C11.7412 20.8051 12.0103 20.587 12.2359 20.3078C12.4095 20.0984 12.6005 19.9065 12.7914 19.7058C12.965 19.5314 13.1386 19.3481 13.3035 19.1649C13.5552 18.877 13.7028 18.5629 13.833 18.275C13.9198 18.0744 14.0152 17.8737 14.1107 17.7777C14.3538 17.5247 14.6141 17.2979 14.8832 17.0623L15.2651 16.7221C15.3779 16.6174 15.5776 16.5301 15.7946 16.4342C16.0549 16.312 16.3587 16.1811 16.6278 15.963C16.9142 15.7362 17.1138 15.4745 17.2961 15.2389C17.4263 15.0644 17.5652 14.8812 17.678 14.8114C18.2161 14.4624 18.6154 14.2269 18.9886 14.0524C19.2837 13.904 19.6396 13.8168 20.0041 13.7121L20.3947 13.6074C20.8547 13.4765 21.1151 12.988 20.9849 12.5256C20.8547 12.0632 20.3687 11.7927 19.9087 11.9323H19.8913Z" fill="#DA6022"/>
</g>
</svg>
