<svg width="16" height="16" viewBox="0 0 16 16" fill="none" xmlns="http://www.w3.org/2000/svg">
<path d="M14 4.91978C14 4.45522 13.6023 4.07463 13.117 4.07463C12.6316 4.07463 12.2339 4.45522 12.2339 4.91978C12.2339 5.12127 12.3099 5.30037 12.4327 5.4459L10.1813 7.40485C10.1111 7.46642 10 7.44963 9.95322 7.37127L8.28655 4.63993C8.63158 4.52239 8.88304 4.21455 8.88304 3.84515C8.88304 3.3806 8.48538 3 8 3C7.51462 3 7.11696 3.3806 7.11696 3.84515C7.11696 4.21455 7.36842 4.52239 7.71345 4.63993L6.04678 7.37127C6 7.44963 5.88889 7.46642 5.81871 7.40485L3.59064 5.46828C3.70175 5.32836 3.76608 5.15485 3.76608 4.96455C3.76608 4.5 3.36842 4.1194 2.88304 4.1194C2.39766 4.1194 2 4.5 2 4.96455C2 5.4291 2.36257 5.77612 2.82456 5.8041L3.30994 11.8713C3.31579 11.944 3.38012 12 3.45614 12H12.538C12.614 12 12.6784 11.944 12.6842 11.8713L13.1754 5.75933C13.6316 5.72575 13.9942 5.36754 13.9942 4.91978H14Z" fill="#DA6022"/>
</svg>
